<svg xmlns="http://www.w3.org/2000/svg" xmlns:xlink="http://www.w3.org/1999/xlink" width="75" zoomAndPan="magnify" viewBox="0 0 56.25 56.249997" height="75" preserveAspectRatio="xMidYMid meet" version="1.0"><defs><clipPath id="6bba7a3179"><path d="M 0 0 L 55.511719 0 L 55.511719 55.511719 L 0 55.511719 Z M 0 0 " clip-rule="nonzero"/></clipPath></defs><g clip-path="url(#6bba7a3179)"><path fill="#ff914d" d="M 27.753906 55.511719 C 43.082031 55.511719 55.511719 43.082031 55.511719 27.753906 C 55.511719 12.425781 43.082031 0 27.753906 0 C 12.425781 0 0 12.425781 0 27.753906 C 0 43.082031 12.425781 55.511719 27.753906 55.511719 Z M 34.292969 31.773438 C 35.910156 32.292969 37.648438 32.582031 39.441406 32.582031 C 40.230469 32.582031 40.886719 33.238281 40.886719 34.019531 L 40.886719 39.023438 C 40.886719 39.824219 40.476562 40.738281 39.441406 40.738281 C 25.902344 40.738281 14.625 29.539062 14.625 16.058594 C 14.625 14.972656 15.570312 14.625 16.359375 14.625 L 21.40625 14.625 C 22.195312 14.625 22.851562 15.277344 22.851562 16.058594 C 22.851562 17.84375 23.128906 19.570312 23.667969 21.179688 C 23.832031 21.6875 23.714844 22.253906 23.320312 22.660156 L 21.535156 24.171875 C 20.910156 24.699219 20.714844 25.585938 21.125 26.292969 C 23.042969 29.601562 26.023438 32.480469 29.273438 34.324219 C 29.992188 34.734375 30.894531 34.519531 31.414062 33.871094 L 32.816406 32.121094 C 33.003906 31.929688 33.242188 31.796875 33.503906 31.734375 C 33.765625 31.671875 34.039062 31.6875 34.292969 31.773438 Z M 34.292969 31.773438 " fill-opacity="1" fill-rule="evenodd"/></g></svg>