<svg xmlns="http://www.w3.org/2000/svg" xmlns:xlink="http://www.w3.org/1999/xlink" width="75" zoomAndPan="magnify" viewBox="0 0 56.25 56.249997" height="75" preserveAspectRatio="xMidYMid meet" version="1.0"><defs><clipPath id="6c62b02705"><path d="M 0 0 L 55.511719 0 L 55.511719 55.511719 L 0 55.511719 Z M 0 0 " clip-rule="nonzero"/></clipPath></defs><g clip-path="url(#6c62b02705)"><path fill="#ff914d" d="M 27.753906 55.511719 C 43.082031 55.511719 55.511719 43.082031 55.511719 27.753906 C 55.511719 12.425781 43.082031 0 27.753906 0 C 12.425781 0 0 12.425781 0 27.753906 C 0 43.082031 12.425781 55.511719 27.753906 55.511719 Z M 15.09375 16.414062 L 40.117188 16.414062 C 42.246094 16.414062 43.871094 18.050781 43.871094 20.195312 L 43.871094 35.316406 C 43.871094 37.457031 42.246094 39.09375 40.117188 39.09375 L 15.09375 39.09375 C 12.96875 39.09375 11.339844 37.457031 11.339844 35.316406 L 11.339844 20.195312 C 11.339844 18.050781 12.96875 16.414062 15.09375 16.414062 Z M 38.292969 33.777344 C 38.589844 33.992188 38.9375 33.585938 38.679688 33.328125 L 33.46875 27.992188 C 33.34375 27.863281 33.355469 27.660156 33.496094 27.550781 L 40.09375 22.300781 C 40.378906 22.074219 40.085938 21.632812 39.765625 21.804688 L 27.75 28.308594 C 27.660156 28.355469 27.550781 28.355469 27.464844 28.308594 L 15.480469 21.78125 C 15.160156 21.605469 14.867188 22.050781 15.15625 22.277344 L 21.714844 27.425781 C 21.855469 27.535156 21.867188 27.738281 21.746094 27.867188 L 16.488281 33.332031 C 16.234375 33.59375 16.585938 33.996094 16.878906 33.777344 L 23.5625 28.882812 C 23.660156 28.8125 23.796875 28.808594 23.898438 28.875 L 27.441406 31.175781 C 27.539062 31.242188 27.671875 31.238281 27.769531 31.171875 L 31.1875 28.878906 C 31.289062 28.808594 31.425781 28.8125 31.527344 28.886719 Z M 38.292969 33.777344 " fill-opacity="1" fill-rule="evenodd"/></g></svg>