<svg xmlns="http://www.w3.org/2000/svg" xmlns:xlink="http://www.w3.org/1999/xlink" width="75" zoomAndPan="magnify" viewBox="0 0 56.25 56.249997" height="75" preserveAspectRatio="xMidYMid meet" version="1.0"><defs><clipPath id="45ff5f45b8"><path d="M 0 0 L 55.511719 0 L 55.511719 55.511719 L 0 55.511719 Z M 0 0 " clip-rule="nonzero"/></clipPath></defs><g clip-path="url(#45ff5f45b8)"><path fill="#ff914d" d="M 27.753906 55.511719 C 43.082031 55.511719 55.511719 43.082031 55.511719 27.753906 C 55.511719 12.425781 43.082031 0 27.753906 0 C 12.425781 0 0 12.425781 0 27.753906 C 0 43.082031 12.425781 55.511719 27.753906 55.511719 Z M 29.636719 26.914062 C 29.070312 27.472656 28.394531 27.753906 27.605469 27.753906 C 26.816406 27.753906 26.140625 27.472656 25.578125 26.914062 C 25.015625 26.351562 24.734375 25.679688 24.734375 24.890625 C 24.734375 24.101562 25.015625 23.425781 25.578125 22.867188 C 26.140625 22.304688 26.816406 22.023438 27.605469 22.023438 C 28.394531 22.023438 29.070312 22.304688 29.636719 22.867188 C 30.195312 23.425781 30.476562 24.101562 30.476562 24.890625 C 30.476562 25.679688 30.195312 26.351562 29.636719 26.914062 Z M 26.457031 41.085938 C 27.113281 41.664062 28.097656 41.664062 28.753906 41.085938 C 32.039062 38.191406 34.53125 35.484375 36.242188 32.964844 C 38.144531 30.160156 39.09375 27.5625 39.09375 25.175781 C 39.09375 21.59375 37.941406 18.742188 35.628906 16.617188 C 33.320312 14.492188 30.644531 13.429688 27.605469 13.429688 C 24.566406 13.429688 21.890625 14.492188 19.582031 16.617188 C 17.269531 18.742188 16.117188 21.59375 16.117188 25.175781 C 16.117188 27.5625 17.066406 30.160156 18.972656 32.964844 C 20.679688 35.484375 23.175781 38.191406 26.457031 41.085938 Z M 26.457031 41.085938 " fill-opacity="1" fill-rule="evenodd"/></g></svg>