<svg xmlns="http://www.w3.org/2000/svg" xmlns:xlink="http://www.w3.org/1999/xlink" width="136" zoomAndPan="magnify" viewBox="0 0 102 103.5" height="138" preserveAspectRatio="xMidYMid meet" version="1.0"><defs><clipPath id="928a5706ff"><path d="M 0.246094 0 L 101.753906 0 L 101.753906 103.003906 L 0.246094 103.003906 Z M 0.246094 0 " clip-rule="nonzero"/></clipPath><clipPath id="886133ab81"><path d="M 0.246094 0 L 101.316406 0 L 101.316406 103 L 0.246094 103 Z M 0.246094 0 " clip-rule="nonzero"/></clipPath><clipPath id="5ad3d87f43"><path d="M 92.214844 102.699219 L 9.347656 102.699219 C 4.332031 102.699219 0.246094 98.609375 0.246094 93.59375 L 0.246094 9.101562 C 0.246094 4.085938 4.332031 0 9.347656 0 L 92.214844 0 C 97.230469 0 101.316406 4.085938 101.316406 9.101562 L 101.316406 93.59375 C 101.316406 98.609375 97.230469 102.699219 92.214844 102.699219 Z M 92.214844 102.699219 " clip-rule="nonzero"/></clipPath><clipPath id="2c6bb988b2"><path d="M 35 25.882812 L 67 25.882812 L 67 76.636719 L 35 76.636719 Z M 35 25.882812 " clip-rule="nonzero"/></clipPath><clipPath id="e7e282c477"><path d="M 25.082031 58 L 41 58 L 41 71 L 25.082031 71 Z M 25.082031 58 " clip-rule="nonzero"/></clipPath><clipPath id="ac99622e9d"><path d="M 75 58 L 77.328125 58 L 77.328125 61 L 75 61 Z M 75 58 " clip-rule="nonzero"/></clipPath><clipPath id="97cc17d9f8"><path d="M 75 34 L 77.328125 34 L 77.328125 37 L 75 37 Z M 75 34 " clip-rule="nonzero"/></clipPath><clipPath id="79e7982150"><path d="M 75 37 L 77.328125 37 L 77.328125 58 L 75 58 Z M 75 37 " clip-rule="nonzero"/></clipPath></defs><g clip-path="url(#928a5706ff)"><path fill="#ffffff" d="M 0.246094 0 L 101.753906 0 L 101.753906 103.003906 L 0.246094 103.003906 Z M 0.246094 0 " fill-opacity="1" fill-rule="nonzero"/></g><g clip-path="url(#886133ab81)"><g clip-path="url(#5ad3d87f43)"><path fill="#ffffff" d="M 0.246094 0 L 101.316406 0 L 101.316406 102.652344 L 0.246094 102.652344 Z M 0.246094 0 " fill-opacity="1" fill-rule="nonzero"/></g></g><path fill="#ff914d" d="M 51.054688 53.59375 C 49.078125 53.59375 47.46875 51.984375 47.46875 50.007812 C 47.46875 48.027344 49.078125 46.417969 51.054688 46.417969 C 53.035156 46.417969 54.640625 48.027344 54.640625 50.007812 C 54.644531 51.984375 53.035156 53.59375 51.054688 53.59375 Z M 51.054688 48.121094 C 50.015625 48.121094 49.167969 48.964844 49.167969 50.007812 C 49.167969 51.046875 50.015625 51.894531 51.054688 51.894531 C 52.097656 51.894531 52.941406 51.046875 52.941406 50.007812 C 52.941406 48.964844 52.097656 48.121094 51.054688 48.121094 Z M 51.054688 48.121094 " fill-opacity="1" fill-rule="nonzero"/><path fill="#ff914d" d="M 54.484375 58.347656 C 53.949219 56.929688 52.574219 55.980469 51.054688 55.980469 C 49.539062 55.980469 48.164062 56.929688 47.628906 58.347656 L 46.039062 57.75 C 46.820312 55.675781 48.835938 54.28125 51.054688 54.28125 C 53.277344 54.28125 55.292969 55.675781 56.074219 57.75 Z M 54.484375 58.347656 " fill-opacity="1" fill-rule="nonzero"/><path fill="#ff914d" d="M 63.28125 68.351562 L 38.828125 68.351562 L 38.828125 34.328125 L 63.28125 34.328125 Z M 40.527344 66.652344 L 61.582031 66.652344 L 61.582031 36.027344 L 40.527344 36.027344 Z M 40.527344 66.652344 " fill-opacity="1" fill-rule="nonzero"/><path fill="#ff914d" d="M 51.054688 60.121094 C 46.214844 60.121094 42.277344 56.179688 42.277344 51.339844 C 42.277344 46.5 46.214844 42.558594 51.054688 42.558594 C 55.898438 42.558594 59.835938 46.5 59.835938 51.339844 C 59.835938 56.179688 55.898438 60.121094 51.054688 60.121094 Z M 51.054688 44.257812 C 47.152344 44.257812 43.976562 47.4375 43.976562 51.339844 C 43.976562 55.242188 47.152344 58.421875 51.054688 58.421875 C 54.960938 58.421875 58.136719 55.242188 58.136719 51.339844 C 58.136719 47.4375 54.960938 44.257812 51.054688 44.257812 Z M 51.054688 44.257812 " fill-opacity="1" fill-rule="nonzero"/><path fill="#ff914d" d="M 50.074219 30.625 L 52.035156 30.625 L 52.035156 32.324219 L 50.074219 32.324219 Z M 50.074219 30.625 " fill-opacity="1" fill-rule="nonzero"/><path fill="#ff914d" d="M 46.867188 70.347656 L 55.242188 70.347656 L 55.242188 72.046875 L 46.867188 72.046875 Z M 46.867188 70.347656 " fill-opacity="1" fill-rule="nonzero"/><g clip-path="url(#2c6bb988b2)"><path fill="#ff914d" d="M 62.488281 76.730469 L 39.625 76.730469 C 37.222656 76.730469 35.273438 74.777344 35.273438 72.378906 L 35.273438 69.429688 L 36.972656 69.429688 L 36.972656 72.378906 C 36.972656 73.84375 38.160156 75.03125 39.625 75.03125 L 62.488281 75.03125 C 63.949219 75.03125 65.140625 73.84375 65.140625 72.378906 L 65.140625 30.292969 C 65.140625 28.832031 63.949219 27.640625 62.488281 27.640625 L 39.625 27.640625 C 38.160156 27.640625 36.972656 28.832031 36.972656 30.292969 L 36.972656 59.613281 L 35.269531 59.613281 L 35.269531 30.292969 C 35.269531 27.894531 37.222656 25.941406 39.625 25.941406 L 62.488281 25.941406 C 64.886719 25.941406 66.835938 27.894531 66.835938 30.292969 L 66.835938 72.382812 C 66.839844 74.78125 64.886719 76.730469 62.488281 76.730469 Z M 62.488281 76.730469 " fill-opacity="1" fill-rule="nonzero"/></g><g clip-path="url(#e7e282c477)"><path fill="#ff914d" d="M 40.527344 70.28125 L 25.082031 70.28125 L 25.082031 58.761719 L 40.527344 58.761719 Z M 26.78125 68.582031 L 38.828125 68.582031 L 38.828125 60.460938 L 26.78125 60.460938 Z M 26.78125 68.582031 " fill-opacity="1" fill-rule="nonzero"/></g><path fill="#ff914d" d="M 29.507812 65.308594 L 32.804688 65.308594 L 32.804688 67.007812 L 29.507812 67.007812 Z M 29.507812 65.308594 " fill-opacity="1" fill-rule="nonzero"/><path fill="#ff914d" d="M 29.507812 62.035156 L 36.101562 62.035156 L 36.101562 63.734375 L 29.507812 63.734375 Z M 29.507812 62.035156 " fill-opacity="1" fill-rule="nonzero"/><g clip-path="url(#ac99622e9d)"><path fill="#ff914d" d="M 75.351562 58.761719 L 77.050781 58.761719 L 77.050781 60.460938 L 75.351562 60.460938 Z M 75.351562 58.761719 " fill-opacity="1" fill-rule="nonzero"/></g><path fill="#ff914d" d="M 73.652344 60.460938 L 71.953125 60.460938 L 71.953125 58.761719 L 73.652344 58.761719 Z M 70.253906 60.460938 L 68.554688 60.460938 L 68.554688 58.761719 L 70.253906 58.761719 Z M 70.253906 60.460938 " fill-opacity="1" fill-rule="nonzero"/><path fill="#ff914d" d="M 73.652344 36.027344 L 71.953125 36.027344 L 71.953125 34.328125 L 73.652344 34.328125 Z M 70.253906 36.027344 L 68.554688 36.027344 L 68.554688 34.328125 L 70.253906 34.328125 Z M 70.253906 36.027344 " fill-opacity="1" fill-rule="nonzero"/><g clip-path="url(#97cc17d9f8)"><path fill="#ff914d" d="M 75.351562 34.328125 L 77.050781 34.328125 L 77.050781 36.027344 L 75.351562 36.027344 Z M 75.351562 34.328125 " fill-opacity="1" fill-rule="nonzero"/></g><g clip-path="url(#79e7982150)"><path fill="#ff914d" d="M 77.050781 57.011719 L 75.351562 57.011719 L 75.351562 55.265625 L 77.050781 55.265625 Z M 77.050781 53.515625 L 75.351562 53.515625 L 75.351562 51.765625 L 77.050781 51.765625 Z M 77.050781 50.015625 L 75.351562 50.015625 L 75.351562 48.269531 L 77.050781 48.269531 Z M 77.050781 46.519531 L 75.351562 46.519531 L 75.351562 44.769531 L 77.050781 44.769531 Z M 77.050781 43.019531 L 75.351562 43.019531 L 75.351562 41.273438 L 77.050781 41.273438 Z M 77.050781 39.523438 L 75.351562 39.523438 L 75.351562 37.773438 L 77.050781 37.773438 Z M 77.050781 39.523438 " fill-opacity="1" fill-rule="nonzero"/></g></svg>