<svg xmlns="http://www.w3.org/2000/svg" xmlns:xlink="http://www.w3.org/1999/xlink" width="136" zoomAndPan="magnify" viewBox="0 0 102 103.5" height="138" preserveAspectRatio="xMidYMid meet" version="1.0"><defs><clipPath id="8a0b2da0bf"><path d="M 0.246094 0 L 101.753906 0 L 101.753906 103.003906 L 0.246094 103.003906 Z M 0.246094 0 " clip-rule="nonzero"/></clipPath><clipPath id="3ac46d6e8f"><path d="M 0.246094 0 L 101.316406 0 L 101.316406 103 L 0.246094 103 Z M 0.246094 0 " clip-rule="nonzero"/></clipPath><clipPath id="53ab7fd677"><path d="M 92.214844 102.699219 L 9.347656 102.699219 C 4.332031 102.699219 0.246094 98.609375 0.246094 93.59375 L 0.246094 9.101562 C 0.246094 4.085938 4.332031 0 9.347656 0 L 92.214844 0 C 97.230469 0 101.316406 4.085938 101.316406 9.101562 L 101.316406 93.59375 C 101.316406 98.609375 97.230469 102.699219 92.214844 102.699219 Z M 92.214844 102.699219 " clip-rule="nonzero"/></clipPath><clipPath id="3aafec90b9"><path d="M 25.226562 28.582031 L 77.472656 28.582031 L 77.472656 78.589844 L 25.226562 78.589844 Z M 25.226562 28.582031 " clip-rule="nonzero"/></clipPath></defs><g clip-path="url(#8a0b2da0bf)"><path fill="#ffffff" d="M 0.246094 0 L 101.753906 0 L 101.753906 103.003906 L 0.246094 103.003906 Z M 0.246094 0 " fill-opacity="1" fill-rule="nonzero"/></g><g clip-path="url(#3ac46d6e8f)"><g clip-path="url(#53ab7fd677)"><path fill="#ffffff" d="M 0.246094 0 L 101.316406 0 L 101.316406 102.652344 L 0.246094 102.652344 Z M 0.246094 0 " fill-opacity="1" fill-rule="nonzero"/></g></g><g clip-path="url(#3aafec90b9)"><path fill="#ff914d" d="M 26.632812 34.648438 L 71.644531 34.648438 C 72.421875 34.648438 73.050781 34.019531 73.050781 33.242188 L 73.050781 30.003906 C 73.050781 29.226562 72.421875 28.597656 71.644531 28.597656 L 26.632812 28.597656 C 25.855469 28.597656 25.226562 29.226562 25.226562 30.003906 L 25.226562 33.246094 C 25.226562 34.019531 25.855469 34.648438 26.632812 34.648438 Z M 35.839844 31.554688 C 35.839844 31.121094 36.125 30.722656 36.546875 30.636719 C 37.136719 30.511719 37.652344 30.957031 37.652344 31.523438 L 37.652344 31.601562 C 37.652344 32.136719 37.1875 32.566406 36.636719 32.5 C 36.171875 32.445312 35.839844 32.027344 35.839844 31.5625 Z M 31.90625 31.554688 C 31.90625 31.121094 32.191406 30.722656 32.613281 30.636719 C 33.203125 30.511719 33.71875 30.957031 33.71875 31.523438 L 33.71875 31.601562 C 33.71875 32.136719 33.253906 32.566406 32.703125 32.5 C 32.238281 32.445312 31.90625 32.027344 31.90625 31.5625 Z M 27.972656 31.632812 C 27.972656 31.199219 28.257812 30.800781 28.679688 30.714844 C 29.269531 30.589844 29.785156 31.035156 29.785156 31.601562 L 29.785156 31.679688 C 29.785156 32.214844 29.320312 32.644531 28.769531 32.578125 C 28.304688 32.523438 27.972656 32.105469 27.972656 31.640625 Z M 58.335938 60.902344 C 58.191406 60.421875 58.460938 59.917969 58.941406 59.769531 C 59.117188 59.71875 59.300781 59.722656 59.464844 59.769531 L 71.746094 63.492188 C 72.394531 63.6875 73.050781 63.203125 73.050781 62.523438 L 73.050781 37.476562 C 73.050781 36.917969 72.597656 36.464844 72.039062 36.464844 L 26.234375 36.464844 C 25.679688 36.464844 25.226562 36.917969 25.226562 37.476562 L 25.226562 67.863281 C 25.226562 68.417969 25.679688 68.871094 26.234375 68.871094 L 59.386719 68.871094 C 60.066406 68.871094 60.550781 68.21875 60.355469 67.570312 Z M 42.125 48.367188 L 39.570312 55.972656 C 39.484375 56.230469 39.28125 56.449219 39 56.542969 C 38.527344 56.703125 38.015625 56.449219 37.855469 55.972656 L 36.710938 52.566406 C 36.535156 52.039062 35.785156 52.039062 35.609375 52.566406 L 34.464844 55.972656 C 34.378906 56.230469 34.171875 56.449219 33.894531 56.542969 C 33.421875 56.703125 32.90625 56.449219 32.75 55.972656 L 30.195312 48.367188 C 30.039062 47.890625 30.292969 47.378906 30.765625 47.222656 C 31.238281 47.0625 31.753906 47.316406 31.910156 47.792969 L 33.054688 51.199219 C 33.234375 51.726562 33.980469 51.726562 34.160156 51.199219 L 35.300781 47.792969 C 35.460938 47.316406 35.972656 47.0625 36.445312 47.222656 C 36.726562 47.316406 36.929688 47.53125 37.015625 47.792969 L 38.160156 51.199219 C 38.339844 51.726562 39.085938 51.726562 39.265625 51.199219 L 40.410156 47.792969 C 40.566406 47.316406 41.082031 47.0625 41.554688 47.222656 C 42.027344 47.378906 42.28125 47.894531 42.125 48.367188 Z M 55.101562 48.367188 L 52.546875 55.972656 C 52.460938 56.230469 52.257812 56.449219 51.976562 56.542969 C 51.503906 56.703125 50.992188 56.449219 50.832031 55.972656 L 49.636719 52.40625 C 49.476562 51.929688 48.800781 51.929688 48.640625 52.40625 L 47.441406 55.972656 C 47.355469 56.230469 47.152344 56.449219 46.871094 56.542969 C 46.398438 56.703125 45.886719 56.449219 45.726562 55.972656 L 43.171875 48.367188 C 43.015625 47.890625 43.269531 47.378906 43.746094 47.222656 C 44.21875 47.0625 44.730469 47.316406 44.890625 47.792969 L 46.085938 51.359375 C 46.246094 51.835938 46.921875 51.835938 47.082031 51.359375 L 48.277344 47.792969 C 48.4375 47.316406 48.949219 47.0625 49.421875 47.222656 C 49.703125 47.316406 49.90625 47.53125 49.996094 47.792969 L 51.191406 51.359375 C 51.351562 51.835938 52.027344 51.835938 52.1875 51.359375 L 53.382812 47.792969 C 53.542969 47.316406 54.054688 47.0625 54.527344 47.222656 C 55.003906 47.378906 55.261719 47.894531 55.101562 48.367188 Z M 56.722656 47.222656 C 57.195312 47.0625 57.710938 47.316406 57.867188 47.792969 L 59.066406 51.359375 C 59.226562 51.835938 59.902344 51.835938 60.058594 51.359375 L 61.257812 47.792969 C 61.414062 47.316406 61.929688 47.0625 62.402344 47.222656 C 62.679688 47.316406 62.886719 47.53125 62.972656 47.792969 L 64.171875 51.359375 C 64.332031 51.835938 65.007812 51.835938 65.164062 51.359375 L 66.363281 47.792969 C 66.519531 47.316406 67.035156 47.0625 67.507812 47.222656 C 67.980469 47.378906 68.238281 47.894531 68.078125 48.367188 L 65.527344 55.972656 C 65.4375 56.230469 65.234375 56.449219 64.953125 56.542969 C 64.480469 56.703125 63.96875 56.449219 63.808594 55.972656 L 62.613281 52.40625 C 62.453125 51.929688 61.777344 51.929688 61.617188 52.40625 L 60.421875 55.972656 C 60.332031 56.230469 60.128906 56.449219 59.847656 56.542969 C 59.375 56.703125 58.863281 56.449219 58.703125 55.972656 L 56.152344 48.367188 C 55.992188 47.894531 56.25 47.378906 56.722656 47.222656 Z M 76.992188 76.523438 L 75.089844 78.425781 C 74.707031 78.808594 74.089844 78.808594 73.707031 78.425781 L 69.785156 74.503906 C 69.425781 74.148438 68.847656 74.148438 68.488281 74.503906 L 66.46875 76.523438 C 65.945312 77.046875 65.054688 76.824219 64.84375 76.117188 L 62.847656 69.53125 L 62.839844 69.503906 L 61.09375 63.746094 C 60.867188 63 61.566406 62.300781 62.3125 62.527344 L 73.667969 65.96875 L 73.722656 65.984375 L 74.683594 66.273438 C 75.390625 66.488281 75.613281 67.378906 75.089844 67.902344 L 73.066406 69.929688 C 72.710938 70.28125 72.710938 70.855469 73.066406 71.210938 L 76.992188 75.136719 C 77.375 75.523438 77.375 76.140625 76.992188 76.523438 Z M 76.992188 76.523438 " fill-opacity="1" fill-rule="evenodd"/></g></svg>